<svg width="392px" height="350px" viewBox="0 0 392 350" version="1.1" xmlns="http://www.w3.org/2000/svg"
  xmlns:xlink="http://www.w3.org/1999/xlink">
  <defs>
    <linearGradient x1="-0.828097821%" y1="7.6518539%" x2="57.6359644%" y2="78.4107719%"
      id="linearGradient-xfepx_kuwg-1">
      <stop stop-color="#00DBED" offset="0%"></stop>
      <stop stop-color="#41A0F2" offset="100%"></stop>
    </linearGradient>
    <path
      d="M390.397226,14.9310172 L206.399226,343.951417 C202.600226,350.744417 192.840226,350.784417 188.984226,344.024417 L1.3379261,14.9627172 C-2.8629039,7.59601715 3.4364261,-1.32708285 11.7843261,0.165017154 L195.979226,33.0888172 C197.154226,33.2988172 198.357226,33.2968172 199.532226,33.0827172 L379.875226,0.212217154 C388.195226,-1.30418285 394.524226,7.54981715 390.397226,14.9310172 Z"
      id="path-xfepx_kuwg-2"></path>
    <path
      d="M202.872556,124.950695 C197.582305,133.585631 189.377717,139.918751 179.825489,142.740726 C177.740494,143.429868 175.566846,143.795491 173.376539,143.825484 C169.143422,143.825484 165.711803,140.304429 165.711803,135.960989 C165.711803,131.617548 169.143422,128.096494 173.376539,128.096494 C173.955316,128.098201 174.529206,127.987792 175.068067,127.771066 C181.173487,126.264351 186.464835,122.372414 189.816075,116.923486 C191.795672,113.676018 192.80627,109.905339 192.723389,106.075907 C191.873504,92.8213614 180.807856,82.7235101 167.879073,83.4044653 C163.146051,83.4056823 158.490477,84.637229 154.34685,86.9841666 C147.426098,90.7444815 143.020703,98.0431687 142.823316,106.075907 L142.823316,172.029191 C142.698618,185.643482 135.367674,198.110892 123.687907,204.57193 C117.218277,208.232604 109.93122,210.101847 102.543809,209.99572 C80.2896452,209.99572 62,192.802306 62,171.595288 C62.0618254,164.928342 63.8889946,158.404075 67.2860245,152.720499 C72.5613321,144.071478 80.7718156,137.733806 90.3330921,134.930469 C92.4240212,134.266853 94.5940543,133.901839 96.7820421,133.845711 C99.5229864,133.831837 102.062526,135.320823 103.442433,137.75084 C104.821049,140.200904 104.821049,143.219508 103.442433,145.669573 C102.062526,148.099589 99.5229864,149.588575 96.7820421,149.574701 C96.2032651,149.572994 95.6293754,149.683403 95.0905141,149.900128 C89.0328659,151.512759 83.7761644,155.379213 80.3425055,160.747708 C78.3629092,163.995177 77.3523109,167.765856 77.435192,171.595288 C78.3124712,184.902686 89.4592672,195.010073 102.438088,194.26673 C107.154085,194.263435 111.792073,193.031729 115.917451,190.687028 C122.854101,186.94419 127.265931,179.634842 127.440985,171.595288 L127.440985,106.347096 C127.632483,92.7377291 134.969397,80.2945382 146.629254,73.8043571 C152.945352,69.9576573 160.164278,67.9511861 167.509052,68 C189.763215,68 208,85.1943158 208,106.401334 C207.965123,113.072279 206.135911,119.603837 202.713975,125.276123 L202.872556,124.950695 Z"
      id="path-xfepx_kuwg-4"></path>
    <filter x="-8.9%" y="-9.2%" width="123.3%" height="123.9%" filterUnits="objectBoundingBox" id="filter-xfepx_kuwg-5">
      <feOffset dx="4" dy="4" in="SourceAlpha" result="shadowOffsetOuter1"></feOffset>
      <feGaussianBlur stdDeviation="5" in="shadowOffsetOuter1" result="shadowBlurOuter1"></feGaussianBlur>
      <feColorMatrix values="0 0 0 0 0.266666667   0 0 0 0 0.274509804   0 0 0 0 0.333333333  0 0 0 1 0" type="matrix"
        in="shadowBlurOuter1"></feColorMatrix>
    </filter>
  </defs>
  <g id="页面-1" stroke="none" stroke-width="1" fill="none" fill-rule="evenodd">
    <g id="vite" transform="translate(-0.000000, 0.115735)">
      <mask id="mask-xfepx_kuwg-3" fill="white">
        <use xlink:href="#path-xfepx_kuwg-2"></use>
      </mask>
      <use id="路径" fill="url(#linearGradient-xfepx_kuwg-1)" fill-rule="nonzero" xlink:href="#path-xfepx_kuwg-2"></use>
      <g id="编组" mask="url(#mask-xfepx_kuwg-3)" fill-rule="nonzero">
        <g
          transform="translate(195.500000, 138.384265) rotate(-45.000000) translate(-195.500000, -138.384265) translate(59.000000, -0.115735)">
          <path
            d="M0,138.58947 C0.0487922047,215.010971 61.093881,276.950493 136.411822,277 C211.729764,277.049389 272.853799,215.190073 273,138.7687 C273,101.964952 258.590891,66.6685904 232.942512,40.644411 C207.294133,14.6202316 172.507466,0 136.23518,0 C60.9173648,0.148343454 -0.0486754883,62.1679686 0,138.58947 Z"
            id="O实心" fill-opacity="0" fill="#FFFFFF"></path>
          <g id="S" fill="none">
            <use fill="black" fill-opacity="1" filter="url(#filter-xfepx_kuwg-5)" xlink:href="#path-xfepx_kuwg-4"></use>
            <use fill="#FFFFFF" xlink:href="#path-xfepx_kuwg-4"></use>
          </g>
        </g>
      </g>
    </g>
  </g>
</svg>